<svg width="71" height="24" viewBox="0 0 71 24" fill="none" xmlns="http://www.w3.org/2000/svg">
<g clip-path="url(#clip0_154_6404)">
<path d="M30.1956 12.3078C30.1956 15.6391 27.5895 18.0939 24.3913 18.0939C21.193 18.0939 18.5869 15.6391 18.5869 12.3078C18.5869 8.95299 21.193 6.52169 24.3913 6.52169C27.5895 6.52169 30.1956 8.95299 30.1956 12.3078ZM27.6547 12.3078C27.6547 10.226 26.1443 8.80169 24.3913 8.80169C22.6382 8.80169 21.1278 10.226 21.1278 12.3078C21.1278 14.3686 22.6382 15.8139 24.3913 15.8139C26.1443 15.8139 27.6547 14.366 27.6547 12.3078ZM42.7174 12.3078C42.7174 15.6391 40.1113 18.0939 36.913 18.0939C33.7147 18.0939 31.1087 15.6391 31.1087 12.3078C31.1087 8.9556 33.7147 6.52169 36.913 6.52169C40.1113 6.52169 42.7174 8.95299 42.7174 12.3078ZM40.1765 12.3078C40.1765 10.226 38.666 8.80169 36.913 8.80169C35.16 8.80169 33.6495 10.226 33.6495 12.3078C33.6495 14.3686 35.16 15.8139 36.913 15.8139C38.666 15.8139 40.1765 14.366 40.1765 12.3078ZM54.7174 6.87125V17.2591C54.7174 21.5321 52.1973 23.2773 49.2182 23.2773C46.4139 23.2773 44.726 21.4017 44.0895 19.8678L46.3017 18.9469C46.6956 19.8886 47.6608 20.9999 49.2156 20.9999C51.1226 20.9999 52.3043 19.8234 52.3043 17.6086V16.7765H52.2156C51.6469 17.4782 50.5513 18.0913 49.1687 18.0913C46.2756 18.0913 43.6252 15.5713 43.6252 12.3286C43.6252 9.06256 46.2756 6.52169 49.1687 6.52169C50.5487 6.52169 51.6443 7.13473 52.2156 7.8156H52.3043V6.87386H54.7174V6.87125ZM52.4843 12.3286C52.4843 10.2913 51.1252 8.80169 49.3956 8.80169C47.6426 8.80169 46.1739 10.2913 46.1739 12.3286C46.1739 14.3452 47.6426 15.8139 49.3956 15.8139C51.1252 15.8139 52.4843 14.3452 52.4843 12.3286ZM58.6956 0.782559V17.7391H56.2174V0.782559H58.6956ZM68.353 14.2121L70.3252 15.5269C69.6887 16.4686 68.1547 18.0913 65.5043 18.0913C62.2174 18.0913 59.7626 15.5504 59.7626 12.3052C59.7626 8.8643 62.2382 6.51908 65.22 6.51908C68.2226 6.51908 69.6913 8.90864 70.1713 10.1999L70.4347 10.8573L62.7 14.0608C63.2921 15.2217 64.213 15.8139 65.5043 15.8139C66.7982 15.8139 67.6956 15.1773 68.353 14.2121ZM62.2826 12.1304L67.453 9.98343C67.1687 9.26082 66.313 8.75734 65.306 8.75734C64.0147 8.75734 62.2174 9.89734 62.2826 12.1304ZM9.20605 10.8026V8.34778H17.4782C17.5591 8.7756 17.6008 9.28169 17.6008 9.82951C17.6008 11.6713 17.0973 13.9486 15.4747 15.5713C13.8965 17.2147 11.88 18.0913 9.20865 18.0913C4.25735 18.0913 0.0938721 14.0582 0.0938721 9.10691C0.0938721 4.1556 4.25735 0.122559 9.20865 0.122559C11.9478 0.122559 13.8991 1.19734 15.3652 2.59821L13.633 4.33038C12.5817 3.3443 11.1574 2.57734 9.20605 2.57734C5.59039 2.57734 2.76257 5.49125 2.76257 9.10691C2.76257 12.7226 5.59039 15.6365 9.20605 15.6365C11.5513 15.6365 12.8869 14.6947 13.7426 13.8391C14.4365 13.1452 14.893 12.1539 15.073 10.7999L9.20605 10.8026Z" fill="white"/>
</g>
<defs>
<clipPath id="clip0_154_6404">
<rect width="70.9565" height="24" fill="white"/>
</clipPath>
</defs>
</svg>
