<svg width="112" height="36" viewBox="0 0 112 36" fill="none" xmlns="http://www.w3.org/2000/svg">
<g clip-path="url(#clip0_154_5896)">
<path d="M1.94734 19.9507H-0.00012207V1.11839H1.70445L12.1964 16.1896V1.11839H14.1438V19.9507H12.5731L1.94734 4.70781V19.9507Z" fill="url(#paint0_linear_154_5896)"/>
<path d="M78.8851 13.0601V12.9543C78.8851 10.7683 79.5685 9.00972 80.9341 7.67758C82.3094 6.33789 84.0561 5.66751 86.1762 5.66751C88.1539 5.66751 89.7646 6.32926 91.0082 7.65059C92.2604 8.95574 92.8877 10.5599 92.8877 12.4642C92.8877 12.8701 92.8779 13.1605 92.8596 13.3375H81.0194C81.0755 14.8359 81.5775 16.0309 82.5242 16.9216C83.471 17.8122 84.707 18.2569 86.2335 18.2569C87.204 18.2569 88.0255 18.109 88.6991 17.8143C89.3727 17.5196 90.0431 17.036 90.7124 16.3667L92.1395 17.6632C90.585 19.276 88.6171 20.0824 86.2335 20.0824C84.0571 20.0824 82.2824 19.439 80.9071 18.1522C79.5598 16.8913 78.8862 15.1943 78.8862 13.0612L78.8851 13.0601ZM81.1608 11.579H90.5991C90.5991 10.4682 90.1662 9.52033 89.2993 8.73552C88.4141 7.93343 87.3724 7.53185 86.1773 7.53185C84.8679 7.53185 83.7192 7.93343 82.7293 8.73552C81.7685 9.5117 81.2461 10.4595 81.1608 11.579Z" fill="url(#paint1_linear_154_5896)"/>
<path d="M19.9312 13.0601V12.9543C19.9312 10.7683 20.6145 9.00972 21.9801 7.67758C23.3554 6.33789 25.1021 5.66751 27.2223 5.66751C29.2 5.66751 30.8106 6.32926 32.0542 7.65059C33.3065 8.95574 33.9337 10.5599 33.9337 12.4642C33.9337 12.8701 33.924 13.1605 33.9056 13.3375H22.0654C22.1215 14.8359 22.6235 16.0309 23.5702 16.9216C24.517 17.8122 25.753 18.2569 27.2795 18.2569C28.25 18.2569 29.0715 18.109 29.7451 17.8143C30.4187 17.5196 31.0891 17.036 31.7584 16.3667L33.1856 17.6632C31.631 19.276 29.6631 20.0824 27.2795 20.0824C25.1032 20.0824 23.3284 19.439 21.9531 18.1522C20.6059 16.8913 19.9322 15.1943 19.9322 13.0612L19.9312 13.0601ZM22.2057 11.579H31.644C31.644 10.4682 31.2111 9.52033 30.3442 8.73552C29.459 7.93343 28.4173 7.53185 27.2223 7.53185C25.9128 7.53185 24.7642 7.93343 23.7743 8.73552C22.8135 9.5117 22.291 10.4595 22.2057 11.579Z" fill="url(#paint2_linear_154_5896)"/>
<path d="M40.9861 18.0173C39.5266 16.6063 38.7958 14.8392 38.7958 12.7136C38.7958 10.588 39.5255 8.84779 40.9861 7.43793C42.4651 6.00972 44.2549 5.29507 46.3578 5.29507C48.4608 5.29507 50.2377 6.00972 51.7155 7.43793C53.175 8.84887 53.9059 10.6074 53.9059 12.7136C53.9059 14.8197 53.1761 16.6063 51.7155 18.0173C50.256 19.4282 48.4694 20.1331 46.3578 20.1331C44.2463 20.1331 42.4457 19.4282 40.9861 18.0173ZM42.4316 8.79381C41.3942 9.81612 40.8749 11.1223 40.8749 12.7136C40.8749 14.3048 41.3931 15.6121 42.4316 16.6603C43.4788 17.6913 44.7871 18.2062 46.3568 18.2062C47.9264 18.2062 49.2218 17.6902 50.269 16.6603C51.3064 15.611 51.8256 14.2962 51.8256 12.7136C51.8256 11.131 51.3075 9.81612 50.269 8.79381C49.2218 7.73588 47.9178 7.20691 46.3568 7.20691C44.7958 7.20691 43.4777 7.73588 42.4316 8.79381Z" fill="url(#paint3_linear_154_5896)"/>
<path d="M60.693 19.7121H58.4648L64.7423 10.3278L58.8448 1.59122H61.1777L66.1187 8.94386L71.0197 1.59122H73.2867L67.4033 10.3537L73.7326 19.7121H71.3738L66.014 11.7495L60.693 19.7121Z" fill="url(#paint4_linear_154_5896)"/>
<path d="M99.0647 16.1853V0H101.198V16.0504C101.198 16.8374 101.334 17.3933 101.608 17.7182C101.881 18.0443 102.352 18.2062 103.021 18.2062C103.454 18.2062 103.803 18.1878 104.066 18.1522V19.9021C103.774 20.0554 103.331 20.1331 102.738 20.1331C101.871 20.1331 101.08 19.9302 100.364 19.5232C99.9596 19.2792 99.6412 18.8701 99.4112 18.2958C99.1802 17.7215 99.0647 17.0187 99.0647 16.1864V16.1853Z" fill="url(#paint5_linear_154_5896)"/>
<path d="M106.253 16.1853V0H108.386V16.0504C108.386 16.8374 108.522 17.3933 108.797 17.7182C109.07 18.0443 109.54 18.2062 110.21 18.2062C110.643 18.2062 110.991 18.1878 111.255 18.1522V19.9021C110.962 20.0554 110.519 20.1331 109.927 20.1331C109.06 20.1331 108.269 19.9302 107.553 19.5232C107.148 19.2792 106.83 18.8701 106.6 18.2958C106.369 17.7215 106.253 17.0187 106.253 16.1864V16.1853Z" fill="url(#paint6_linear_154_5896)"/>
<path d="M2.61868 35.8651H-0.000244141V29.2357H2.33585C2.91339 29.2357 3.3981 29.3966 3.78997 29.7193C4.18615 30.0356 4.38371 30.4383 4.38371 30.9273C4.38371 31.2436 4.29842 31.5178 4.12678 31.7499C3.95513 31.982 3.71548 32.1526 3.40458 32.2605C3.89684 32.3501 4.27467 32.5401 4.54024 32.8294C4.8058 33.1188 4.93858 33.4782 4.93858 33.9047C4.93858 34.4746 4.7162 34.9442 4.27036 35.3124C3.83531 35.6805 3.28475 35.8651 2.61868 35.8651ZM0.854739 29.919V32.0047H2.27647C2.63272 32.0047 2.93067 31.9054 3.16924 31.7046C3.40782 31.5049 3.52764 31.2544 3.52764 30.9543C3.52764 30.6542 3.40997 30.4059 3.17464 30.2105C2.9393 30.0151 2.64351 29.918 2.28727 29.918H0.854739V29.919ZM0.854739 32.6686V35.1817H2.56471C3.00299 35.1817 3.36571 35.0608 3.65287 34.819C3.94002 34.5772 4.08252 34.2728 4.08252 33.9036C4.08252 33.5344 3.93678 33.2559 3.64423 33.0205C3.36248 32.7852 2.99975 32.6675 2.55391 32.6675H0.853659L0.854739 32.6686Z" fill="url(#paint7_linear_154_5896)"/>
<path d="M12.3679 35.8651H7.81555V29.2357H12.2848V29.919H8.70184V32.023H12.0689V32.7064H8.70184V35.1828H12.3679V35.8662V35.8651Z" fill="url(#paint8_linear_154_5896)"/>
<path d="M15.383 35.8651H14.5366L17.5086 29.2357H18.1142L21.0861 35.8651H20.2398L19.5122 34.2296H16.1073L15.384 35.8651H15.383ZM17.8087 30.3832L16.4118 33.5419H19.211L17.8087 30.3832Z" fill="url(#paint9_linear_154_5896)"/>
<path d="M23.2635 33.5419V29.2357H24.0721V33.4674C24.0721 34.0525 24.2394 34.5038 24.5752 34.819C24.9109 35.1353 25.3751 35.2929 25.9678 35.2929C26.5604 35.2929 27.0246 35.1353 27.3582 34.8212C27.6918 34.507 27.8591 34.0558 27.8591 33.4664V29.2346H28.6677V33.5409C28.6677 34.3181 28.4204 34.9205 27.9249 35.348C27.4262 35.769 26.7742 35.9795 25.9688 35.9795C25.1635 35.9795 24.5115 35.769 24.0127 35.348C23.514 34.9173 23.2646 34.3149 23.2646 33.5409L23.2635 33.5419Z" fill="url(#paint10_linear_154_5896)"/>
<path d="M34.2585 35.8651H33.5201V29.919H31.2423V29.2357H36.4812V29.919H34.2585V35.8651Z" fill="url(#paint11_linear_154_5896)"/>
<path d="M41.6371 35.8651H40.8933V33.1425L38.5615 29.2357H39.3798L41.2755 32.4138L43.1473 29.2357H43.9505L41.6371 33.1425V35.8651Z" fill="url(#paint12_linear_154_5896)"/>
<path d="M54.1994 29.1105C55.2217 29.1105 56.0638 29.4851 56.7266 30.2343L56.2246 30.6898C55.7108 30.0918 55.035 29.7938 54.1994 29.7938C53.4222 29.7938 52.7745 30.0572 52.2574 30.584C51.7435 31.1076 51.4866 31.764 51.4866 32.5542C51.4866 33.3444 51.7435 34.0094 52.2574 34.5329C52.768 35.0533 53.4157 35.3134 54.1994 35.3134C55.0512 35.3134 55.7356 35.0036 56.2527 34.384L56.759 34.8395C56.0929 35.6135 55.2401 36.0011 54.1994 36.0011C53.2333 36.0011 52.4139 35.674 51.7414 35.0209C51.0753 34.3645 50.7428 33.5419 50.7428 32.5542C50.7428 31.5664 51.0753 30.7578 51.7414 30.1015C52.4193 29.4419 53.2387 29.1116 54.1994 29.1116V29.1105Z" fill="url(#paint13_linear_154_5896)"/>
<path d="M63.6939 35.8651H59.3953V29.2357H60.1391V35.1817H63.6939V35.8651Z" fill="url(#paint14_linear_154_5896)"/>
<path d="M66.9412 35.8651H66.2028V29.2357H66.9412V35.8651Z" fill="url(#paint15_linear_154_5896)"/>
<path d="M71.1286 35.8651H70.4139V29.2357H71.039L74.8864 34.5416V29.2357H75.6011V35.8651H75.0257L71.1286 30.4988V35.8651Z" fill="url(#paint16_linear_154_5896)"/>
<path d="M79.7184 35.8651H78.98V29.2357H79.7184V35.8651Z" fill="url(#paint17_linear_154_5896)"/>
<path d="M86.1891 29.1105C87.2114 29.1105 88.0534 29.4851 88.7162 30.2343L88.2143 30.6898C87.7004 30.0918 87.0246 29.7938 86.1891 29.7938C85.4118 29.7938 84.7641 30.0572 84.247 30.584C83.7331 31.1076 83.4762 31.764 83.4762 32.5542C83.4762 33.3444 83.7331 34.0094 84.247 34.5329C84.7576 35.0533 85.4053 35.3134 86.1891 35.3134C87.0408 35.3134 87.7252 35.0036 88.2423 34.384L88.7486 34.8395C88.0825 35.6135 87.2297 36.0011 86.1891 36.0011C85.2229 36.0011 84.4035 35.674 83.731 35.0209C83.0649 34.3645 82.7324 33.5419 82.7324 32.5542C82.7324 31.5664 83.0649 30.7578 83.731 30.1015C84.4089 29.4419 85.2283 29.1116 86.1891 29.1116V29.1105Z" fill="url(#paint18_linear_154_5896)"/>
</g>
<defs>
<linearGradient id="paint0_linear_154_5896" x1="3.68754" y1="10.5351" x2="98.3003" y2="10.5351" gradientUnits="userSpaceOnUse">
<stop stop-color="#1D401D"/>
<stop offset="0.54" stop-color="#1A6533"/>
<stop offset="1" stop-color="#146C37"/>
</linearGradient>
<linearGradient id="paint1_linear_154_5896" x1="3.68757" y1="12.8755" x2="98.3004" y2="12.8755" gradientUnits="userSpaceOnUse">
<stop stop-color="#1D401D"/>
<stop offset="0.54" stop-color="#1A6533"/>
<stop offset="1" stop-color="#146C37"/>
</linearGradient>
<linearGradient id="paint2_linear_154_5896" x1="3.68754" y1="12.8755" x2="98.3003" y2="12.8755" gradientUnits="userSpaceOnUse">
<stop stop-color="#1D401D"/>
<stop offset="0.54" stop-color="#1A6533"/>
<stop offset="1" stop-color="#146C37"/>
</linearGradient>
<linearGradient id="paint3_linear_154_5896" x1="3.68746" y1="12.7136" x2="98.3003" y2="12.7136" gradientUnits="userSpaceOnUse">
<stop stop-color="#1D401D"/>
<stop offset="0.54" stop-color="#1A6533"/>
<stop offset="1" stop-color="#146C37"/>
</linearGradient>
<linearGradient id="paint4_linear_154_5896" x1="3.68759" y1="10.6517" x2="98.3004" y2="10.6517" gradientUnits="userSpaceOnUse">
<stop stop-color="#1D401D"/>
<stop offset="0.54" stop-color="#1A6533"/>
<stop offset="1" stop-color="#146C37"/>
</linearGradient>
<linearGradient id="paint5_linear_154_5896" x1="3.68755" y1="10.0666" x2="98.3004" y2="10.0666" gradientUnits="userSpaceOnUse">
<stop stop-color="#1D401D"/>
<stop offset="0.54" stop-color="#1A6533"/>
<stop offset="1" stop-color="#146C37"/>
</linearGradient>
<linearGradient id="paint6_linear_154_5896" x1="3.68761" y1="10.0666" x2="98.3003" y2="10.0666" gradientUnits="userSpaceOnUse">
<stop stop-color="#1D401D"/>
<stop offset="0.54" stop-color="#1A6533"/>
<stop offset="1" stop-color="#146C37"/>
</linearGradient>
<linearGradient id="paint7_linear_154_5896" x1="-0.000244141" y1="32.5499" x2="4.93858" y2="32.5499" gradientUnits="userSpaceOnUse">
<stop stop-color="#1D401D"/>
<stop offset="0.69" stop-color="#1D401D"/>
</linearGradient>
<linearGradient id="paint8_linear_154_5896" x1="7.81663" y1="2.07245e-05" x2="12.3679" y2="2.07245e-05" gradientUnits="userSpaceOnUse">
<stop stop-color="#1D401D"/>
<stop offset="0.69" stop-color="#1D401D"/>
</linearGradient>
<linearGradient id="paint9_linear_154_5896" x1="14.5366" y1="1.39389e-05" x2="21.085" y2="1.39389e-05" gradientUnits="userSpaceOnUse">
<stop stop-color="#1D401D"/>
<stop offset="0.69" stop-color="#1D401D"/>
</linearGradient>
<linearGradient id="paint10_linear_154_5896" x1="23.2635" y1="32.6081" x2="28.6666" y2="32.6081" gradientUnits="userSpaceOnUse">
<stop stop-color="#1D401D"/>
<stop offset="0.69" stop-color="#1D401D"/>
</linearGradient>
<linearGradient id="paint11_linear_154_5896" x1="31.2423" y1="1.22552e-05" x2="36.4812" y2="1.22552e-05" gradientUnits="userSpaceOnUse">
<stop stop-color="#1D401D"/>
<stop offset="0.69" stop-color="#1D401D"/>
</linearGradient>
<linearGradient id="paint12_linear_154_5896" x1="38.5615" y1="1.19276e-05" x2="43.9505" y2="1.19276e-05" gradientUnits="userSpaceOnUse">
<stop stop-color="#1D401D"/>
<stop offset="0.69" stop-color="#1D401D"/>
</linearGradient>
<linearGradient id="paint13_linear_154_5896" x1="50.7439" y1="32.5552" x2="56.759" y2="32.5552" gradientUnits="userSpaceOnUse">
<stop stop-color="#1D401D"/>
<stop offset="0.69" stop-color="#1D401D"/>
</linearGradient>
<linearGradient id="paint14_linear_154_5896" x1="59.3953" y1="1.33863e-05" x2="63.6939" y2="1.33863e-05" gradientUnits="userSpaceOnUse">
<stop stop-color="#1D401D"/>
<stop offset="0.69" stop-color="#1D401D"/>
</linearGradient>
<linearGradient id="paint15_linear_154_5896" x1="66.2028" y1="1.44757e-05" x2="66.9412" y2="1.44757e-05" gradientUnits="userSpaceOnUse">
<stop stop-color="#1D401D"/>
<stop offset="0.69" stop-color="#1D401D"/>
</linearGradient>
<linearGradient id="paint16_linear_154_5896" x1="70.4139" y1="1.45479e-05" x2="75.6011" y2="1.45479e-05" gradientUnits="userSpaceOnUse">
<stop stop-color="#1D401D"/>
<stop offset="0.69" stop-color="#1D401D"/>
</linearGradient>
<linearGradient id="paint17_linear_154_5896" x1="78.9789" y1="1.51427e-05" x2="79.7184" y2="1.51427e-05" gradientUnits="userSpaceOnUse">
<stop stop-color="#1D401D"/>
<stop offset="0.69" stop-color="#1D401D"/>
</linearGradient>
<linearGradient id="paint18_linear_154_5896" x1="82.7324" y1="32.5552" x2="88.7486" y2="32.5552" gradientUnits="userSpaceOnUse">
<stop stop-color="#1D401D"/>
<stop offset="0.69" stop-color="#1D401D"/>
</linearGradient>
<clipPath id="clip0_154_5896">
<rect width="111.255" height="36" fill="white"/>
</clipPath>
</defs>
</svg>
