<svg width="98" height="18" viewBox="0 0 98 18" fill="none" xmlns="http://www.w3.org/2000/svg">
<g clip-path="url(#clip0_154_6401)">
<path d="M97.8423 0L94.5637 0.385714V17.775H97.8423V0ZM91.6387 0L88.3602 0.385714V17.775H91.6387V0ZM54.7066 16.0071C53.1637 16.0071 52.2637 15.0107 52.2637 13.3393V3.08571H51.9744L47.0245 7.61786V7.875H48.9852V14.3036C48.9852 16.7464 50.4637 18.0321 52.5209 18.0321C54.0959 18.0321 55.3494 17.2607 56.1852 15.9107V15.75C55.6387 15.9107 55.1887 16.0071 54.7066 16.0071ZM7.68159 16.0071C6.17088 16.0071 5.23874 15.0107 5.23874 13.3393V3.08571H4.94945L-0.000549316 7.61786V7.875H1.96016V14.3036C1.96016 16.7464 3.43874 18.0321 5.49588 18.0321C7.07088 18.0321 8.29231 17.2607 9.16016 15.9107V15.75C8.64588 15.9107 8.16374 16.0071 7.68159 16.0071ZM41.4959 6.46071V17.775H44.7745V6.10714L41.4959 6.46071ZM14.6887 6.10714L11.4102 6.46071V17.775H14.6887V6.10714ZM79.778 12.7607C80.228 12.8893 80.7745 12.9857 81.3209 12.9857C83.828 12.9857 85.9494 11.2821 85.9494 9.25714C85.9494 7.48929 84.278 6.10714 81.8352 6.075V6.23571C82.6066 6.65357 82.7995 7.65 82.7995 8.51786C82.7995 10.7679 81.3852 12.4714 79.778 12.6V12.7607ZM24.7495 12.7607C25.1994 12.8893 25.7137 12.9857 26.2923 12.9857C28.7995 12.9857 30.8887 11.2821 30.8887 9.25714C30.8887 7.48929 29.2173 6.10714 26.7745 6.075V6.23571C27.5459 6.65357 27.7387 7.65 27.7387 8.51786C27.7387 10.7679 26.3244 12.4714 24.7495 12.6V12.7607ZM81.1923 6.10714C77.8173 6.10714 75.3102 8.64643 75.3102 12.15C75.3102 15.6536 77.7209 18 81.0316 18C83.2495 18 85.0816 16.875 85.9494 14.8821V14.6893C85.2744 15.3 84.1173 15.6214 82.9602 15.6214C80.3566 15.6214 78.7173 13.9821 78.7173 11.1857C78.7173 9.16071 79.6173 6.975 81.1602 6.26786V6.10714H81.1923ZM26.1637 6.10714C22.7887 6.10714 20.2816 8.64643 20.2816 12.15C20.2816 15.6536 22.6602 18 25.9709 18C28.2209 18 30.0209 16.875 30.8887 14.8821V14.6893C30.2137 15.3 29.0566 15.6214 27.8995 15.6214C25.2959 15.6214 23.6566 13.95 23.6566 11.1857C23.6566 9.16071 24.5887 6.975 26.1316 6.26786V6.10714H26.1637ZM33.0102 12.4714C33.0102 15.6214 34.8102 18 37.478 18C39.053 18 40.2102 17.0679 40.9495 15.6214V15.4929C40.5637 15.6857 40.0816 15.8464 39.5673 15.8464C37.7673 15.8143 36.4816 14.2714 36.4816 11.8929C36.4816 8.775 38.378 6.65357 40.8852 6.65357V6.42857C40.3709 6.20357 39.6637 6.075 38.9566 6.075C35.5494 6.10714 33.0102 8.775 33.0102 12.4714ZM53.0673 7.875H56.2495V6.33214H53.0673V7.875ZM6.04231 7.875H9.22445V6.33214H6.04231V7.875ZM67.853 6.33214H64.3173L69.0744 17.9357H69.2995L71.0673 14.2393L67.853 6.33214ZM61.4566 6.33214H57.9209L62.678 17.9357H62.903L64.6709 14.2393L61.4566 6.33214ZM71.0994 6.33214C71.678 7.45714 72.1923 9.64286 72.1923 10.7679H72.353L74.603 6.33214H71.0994ZM15.203 9.48214V9.61071C15.9102 8.87143 16.9387 8.67857 17.903 8.67857C18.5459 8.67857 18.8995 8.775 19.2209 8.90357V6.23571C19.028 6.17143 18.7709 6.10714 18.4173 6.10714C16.5852 6.10714 15.5887 7.32857 15.203 9.48214Z" fill="white"/>
</g>
<defs>
<clipPath id="clip0_154_6401">
<rect width="97.8429" height="18" fill="white"/>
</clipPath>
</defs>
</svg>
